{
  "accessors": [
    {
      "bufferView": 2,
      "componentType": 5126,
      "count": 24,
      "max": [
        0.5,
        0.5,
        0.5
      ],
      "min": [
        -0.5,
        -0.5,
        -0.5
      ],
      "type": "VEC3"
    },
    {
      "bufferView": 2,
      "byteOffset": 288,
      "componentType": 5126,
      "count": 24,
      "max": [
        1.0,
        1.0,
        1.0
      ],
      "min": [
        -1.0,
        -1.0,
        -1.0
      ],
      "type": "VEC3"
    },
    {
      "bufferView": 3,
      "componentType": 5126,
      "count": 24,
      "max": [
        1.0,
        0.0,
        1.0,
        1.0
      ],
      "min": [
        0.0,
        0.0,
        -1.0,
        1.0
      ],
      "type": "VEC4"
    },
    {
      "bufferView": 1,
      "componentType": 5126,
      "count": 24,
      "max": [
        0.9473654627799988,
        0.9980080723762512
      ],
      "min": [
        0.0018909490900114179,
        0.00199203216470778
      ],
      "type": "VEC2"
    },
    {
      "bufferView": 0,
      "componentType": 5125,
      "count": 36,
      "type": "SCALAR"
    },
    {
      "bufferView": 2,
      "byteOffset": 576,
      "componentType": 5126,
      "count": 6526,
      "max": [
        211.25982666015625,
        104.66973876953125,
        52.85649490356445
      ],
      "min": [
        -54.30208969116211,
        -2.8934199810028076,
        -59.32685852050781
      ],
      "type": "VEC3"
    },
    {
      "bufferView": 2,
      "byteOffset": 78888,
      "componentType": 5126,
      "count": 6526,
      "max": [
        1.0,
        1.0,
        1.0
      ],
      "min": [
        -1.0,
        -1.0,
        -1.0
      ],
      "type": "VEC3"
    },
    {
      "bufferView": 3,
      "byteOffset": 384,
      "componentType": 5126,
      "count": 6526,
      "max": [
        1.0,
        1.0,
        1.0,
        1.0
      ],
      "min": [
        -1.0,
        -1.0,
        -1.0,
        -1.0
      ],
      "type": "VEC4"
    },
    {
      "bufferView": 1,
      "byteOffset": 192,
      "componentType": 5126,
      "count": 6526,
      "max": [
        0.9963037371635437,
        0.9975714087486267
      ],
      "min": [
        0.0,
        0.0
      ],
      "type": "VEC2"
    },
    {
      "bufferView": 0,
      "byteOffset": 144,
      "componentType": 5125,
      "count": 14691,
      "type": "SCALAR"
    },
    {
      "bufferView": 2,
      "byteOffset": 157200,
      "componentType": 5126,
      "count": 34822,
      "max": [
        33.48528289794922,
        107.63105010986328,
        4.561708450317383
      ],
      "min": [
        -44.86927032470703,
        2.409376621246338,
        -57.67184829711914
      ],
      "type": "VEC3"
    },
    {
      "bufferView": 2,
      "byteOffset": 575064,
      "componentType": 5126,
      "count": 34822,
      "max": [
        0.999984085559845,
        1.0,
        0.9999840259552002
      ],
      "min": [
        -0.9999840259552002,
        -1.0,
        -0.999984085559845
      ],
      "type": "VEC3"
    },
    {
      "bufferView": 3,
      "byteOffset": 104800,
      "componentType": 5126,
      "count": 34822,
      "max": [
        1.0,
        0.999984085559845,
        0.999967098236084,
        1.0
      ],
      "min": [
        -0.9999412298202515,
        -0.9993479251861572,
        -1.0,
        -1.0
      ],
      "type": "VEC4"
    },
    {
      "bufferView": 1,
      "byteOffset": 52400,
      "componentType": 5126,
      "count": 34822,
      "max": [
        0.9966241121292114,
        0.9978821873664856
      ],
      "min": [
        0.0,
        0.0
      ],
      "type": "VEC2"
    },
    {
      "bufferView": 0,
      "byteOffset": 58908,
      "componentType": 5125,
      "count": 195840,
      "type": "SCALAR"
    }
  ],
  "asset": {
    "extras": {
      "author": "Jayson Stauffer (https://sketchfab.com/JaysonStauffer)",
      "license": "CC-BY-4.0 (http://creativecommons.org/licenses/by/4.0/)",
      "source": "https://sketchfab.com/3d-models/doghouse-c1a3f007fe1a4bf88c5844abfaffe08c",
      "title": "Doghouse"
    },
    "generator": "Sketchfab-11.22.0",
    "version": "2.0"
  },
  "bufferViews": [
    {
      "buffer": 0,
      "byteLength": 842268,
      "name": "floatBufferViews",
      "target": 34963
    },
    {
      "buffer": 0,
      "byteLength": 330976,
      "byteOffset": 842268,
      "byteStride": 8,
      "name": "floatBufferViews",
      "target": 34962
    },
    {
      "buffer": 0,
      "byteLength": 992928,
      "byteOffset": 1173244,
      "byteStride": 12,
      "name": "floatBufferViews",
      "target": 34962
    },
    {
      "buffer": 0,
      "byteLength": 661952,
      "byteOffset": 2166172,
      "byteStride": 16,
      "name": "floatBufferViews",
      "target": 34962
    }
  ],
  "buffers": [
    {
      "byteLength": 2828124,
      "uri": "scene.bin"
    }
  ],
  "images": [
    {
      "uri": "textures/lambert15_baseColor.png"
    },
    {
      "uri": "textures/lambert15_metallicRoughness.png"
    },
    {
      "uri": "textures/lambert15_normal.png"
    },
    {
      "uri": "textures/lambert16_baseColor.png"
    },
    {
      "uri": "textures/lambert16_metallicRoughness.png"
    },
    {
      "uri": "textures/lambert16_normal.png"
    }
  ],
  "materials": [
    {
      "doubleSided": true,
      "name": "lambert15",
      "normalTexture": {
        "index": 2
      },
      "pbrMetallicRoughness": {
        "baseColorTexture": {
          "index": 0
        },
        "metallicFactor": 0.0,
        "metallicRoughnessTexture": {
          "index": 1
        }
      }
    },
    {
      "doubleSided": true,
      "name": "lambert16",
      "normalTexture": {
        "index": 5
      },
      "pbrMetallicRoughness": {
        "baseColorTexture": {
          "index": 3
        },
        "metallicRoughnessTexture": {
          "index": 4
        }
      }
    }
  ],
  "meshes": [
    {
      "name": "pCube38_lambert15_0",
      "primitives": [
        {
          "attributes": {
            "NORMAL": 1,
            "POSITION": 0,
            "TANGENT": 2,
            "TEXCOORD_0": 3
          },
          "indices": 4,
          "material": 0,
          "mode": 4
        }
      ]
    },
    {
      "name": "pCubeShape66_lambert16_0",
      "primitives": [
        {
          "attributes": {
            "NORMAL": 6,
            "POSITION": 5,
            "TANGENT": 7,
            "TEXCOORD_0": 8
          },
          "indices": 9,
          "material": 1,
          "mode": 4
        }
      ]
    },
    {
      "name": "pCylinder12_lambert15_0",
      "primitives": [
        {
          "attributes": {
            "NORMAL": 11,
            "POSITION": 10,
            "TANGENT": 12,
            "TEXCOORD_0": 13
          },
          "indices": 14,
          "material": 0,
          "mode": 4
        }
      ]
    }
  ],
  "nodes": [
    {
      "children": [
        1
      ],
      "matrix": [
        1.0,
        0.0,
        0.0,
        0.0,
        0.0,
        2.220446049250313e-16,
        -1.0,
        0.0,
        0.0,
        1.0,
        2.220446049250313e-16,
        0.0,
        0.0,
        0.0,
        0.0,
        1.0
      ],
      "name": "Sketchfab_model"
    },
    {
      "children": [
        2
      ],
      "matrix": [
        1.0,
        0.0,
        0.0,
        0.0,
        0.0,
        0.0,
        1.0,
        0.0,
        0.0,
        -1.0,
        0.0,
        0.0,
        0.0,
        0.0,
        0.0,
        1.0
      ],
      "name": "106e5e239cef4ea3a6e3ae5dbeec80ce.fbx"
    },
    {
      "children": [
        3,
        5,
        7
      ],
      "name": "RootNode"
    },
    {
      "children": [
        4
      ],
      "matrix": [
        31.69875144958496,
        0.0,
        0.0,
        0.0,
        0.0,
        1.3720732927322388,
        0.0,
        0.0,
        0.0,
        0.0,
        5.804148197174072,
        0.0,
        60.134735107421875,
        0.0,
        47.09600067138672,
        1.0
      ],
      "name": "pCube38"
    },
    {
      "mesh": 0,
      "name": "pCube38_lambert15_0"
    },
    {
      "children": [
        6
      ],
      "name": "pCubeShape66"
    },
    {
      "mesh": 1,
      "name": "pCubeShape66_lambert16_0"
    },
    {
      "children": [
        8
      ],
      "name": "pCylinder12"
    },
    {
      "mesh": 2,
      "name": "pCylinder12_lambert15_0"
    }
  ],
  "samplers": [
    {
      "magFilter": 9729,
      "minFilter": 9987,
      "wrapS": 10497,
      "wrapT": 10497
    }
  ],
  "scene": 0,
  "scenes": [
    {
      "name": "Sketchfab_Scene",
      "nodes": [
        0
      ]
    }
  ],
  "textures": [
    {
      "sampler": 0,
      "source": 0
    },
    {
      "sampler": 0,
      "source": 1
    },
    {
      "sampler": 0,
      "source": 2
    },
    {
      "sampler": 0,
      "source": 3
    },
    {
      "sampler": 0,
      "source": 4
    },
    {
      "sampler": 0,
      "source": 5
    }
  ]
}
